<svg id="Capa_1" data-name="Capa 1" xmlns="http://www.w3.org/2000/svg" viewBox="0 0 484.81 508"><defs><style>.cls-1{fill:#f16c6c;stroke:#f16c6c;stroke-miterlimit:10;stroke-width:12px;}</style></defs><path class="cls-1" d="M277.19,8H52.92A33.36,33.36,0,0,0,19.59,41.32V470.68A33.36,33.36,0,0,0,52.92,504H459.08a33.36,33.36,0,0,0,33.33-33.32V41.32A33.36,33.36,0,0,0,459.08,8H327.32a12.54,12.54,0,0,0,0,25.07H459.08a8.27,8.27,0,0,1,8.26,8.25V470.68a8.27,8.27,0,0,1-8.26,8.25H52.92a8.27,8.27,0,0,1-8.26-8.25V41.32a8.27,8.27,0,0,1,8.26-8.25H277.19a12.54,12.54,0,0,0,0-25.07Z" transform="translate(-13.59 -2)"/><path class="cls-1" d="M170.13,244.53A12.53,12.53,0,0,0,182.67,232V109.6h24.87a12.54,12.54,0,1,0,0-25.07H133a12.54,12.54,0,0,0,0,25.07H157.6V232a12.53,12.53,0,0,0,12.53,12.53Z" transform="translate(-13.59 -2)"/><path class="cls-1" d="M310.42,84.4a80,80,0,1,0,80,80A80.09,80.09,0,0,0,310.42,84.4Zm0,134.93a54.94,54.94,0,1,1,54.93-54.93A55,55,0,0,1,310.42,219.33Z" transform="translate(-13.59 -2)"/><path class="cls-1" d="M134.56,406.08a12.54,12.54,0,0,0,8.83,3.64h.05c.91,0,22.37-.09,30.95-.23,31.5-.56,54.36-28.08,54.36-65.46,0-39.29-22.29-65.68-55.47-65.68h-30.1a12.53,12.53,0,0,0-12.54,12.56V291h0V395.46a17.86,17.86,0,0,0,3.92,10.62Zm38.72-102.66c22.41,0,30.4,21,30.4,40.61,0,27.54-14.93,40.13-29.73,40.39-4.14.07-11.57.13-18.07.17,0-12.57-.09-31.35-.09-40.67,0-7.79,0-27.43-.06-40.5Z" transform="translate(-13.59 -2)"/><path class="cls-1" d="M256.89,345.43a67.31,67.31,0,1,0,67.31-67.31,67.39,67.39,0,0,0-67.31,67.31Zm109.55,0a42.24,42.24,0,1,1-42.24-42.24A42.29,42.29,0,0,1,366.44,345.43Z" transform="translate(-13.59 -2)"/></svg>